<?xml version="1.0" standalone="no"?>
<!DOCTYPE svg PUBLIC "-//W3C//DTD SVG 20010904//EN"
 "http://www.w3.org/TR/2001/REC-SVG-20010904/DTD/svg10.dtd">
<svg version="1.0" xmlns="http://www.w3.org/2000/svg"
 width="512.000000pt" height="512.000000pt" viewBox="0 0 512.000000 512.000000"
 preserveAspectRatio="xMidYMid meet">

<g transform="translate(0.000000,512.000000) scale(0.100000,-0.100000)"
fill="#ffffff" stroke="none">
<path d="M2516 4128 c-8 -13 -72 -139 -140 -280 -122 -249 -126 -257 -158
-263 -18 -3 -157 -23 -308 -45 -284 -40 -300 -45 -300 -89 0 -9 100 -114 224
-233 l223 -218 -48 -282 c-27 -156 -49 -297 -49 -314 0 -34 15 -54 43 -54 10
0 138 63 285 140 146 77 270 140 274 140 4 0 126 -63 272 -140 145 -77 273
-140 283 -140 28 0 43 20 43 54 0 17 -23 157 -50 311 l-49 280 224 220 c124
121 225 225 225 232 0 6 -8 21 -18 33 -16 20 -48 27 -310 65 -160 24 -297 45
-304 47 -7 3 -73 128 -148 279 -132 268 -136 274 -167 277 -24 2 -35 -2 -47
-20z"/>
<path d="M1089 3308 c-50 -101 -95 -185 -100 -188 -5 -3 -95 -18 -201 -33
-162 -24 -196 -31 -210 -49 -10 -11 -18 -25 -18 -31 0 -7 68 -79 150 -161
l150 -150 -34 -200 c-22 -132 -31 -207 -25 -218 21 -38 46 -31 233 66 l184 96
181 -96 c256 -136 257 -135 207 153 l-35 198 150 151 c82 83 149 155 149 161
0 6 -8 20 -17 32 -15 17 -49 25 -216 49 -108 16 -199 31 -201 33 -2 2 -45 86
-95 187 l-91 182 -35 0 -35 0 -91 -182z"/>
<path d="M3779 3308 c-50 -101 -93 -185 -95 -187 -2 -2 -93 -17 -201 -33 -199
-29 -233 -40 -233 -77 0 -9 67 -83 149 -166 l149 -150 -33 -190 c-19 -104 -34
-198 -35 -207 0 -10 11 -25 25 -34 29 -19 13 -25 270 109 l130 68 183 -96
c193 -102 216 -107 229 -57 4 16 -7 107 -26 221 l-33 193 146 140 c120 115
146 145 146 168 0 15 -6 32 -13 38 -7 6 -93 22 -192 37 -99 14 -191 28 -203
31 -19 4 -39 37 -104 172 -44 92 -87 175 -95 185 -9 9 -29 17 -44 17 -27 0
-34 -10 -120 -182z"/>
<path d="M3286 2205 c-8 -9 -53 -94 -100 -190 -81 -167 -85 -174 -117 -180
-19 -3 -110 -17 -203 -31 -94 -13 -176 -30 -183 -36 -34 -28 -15 -57 133 -201
l147 -143 -34 -202 c-48 -287 -46 -288 212 -151 l174 92 177 -92 c97 -50 188
-91 202 -91 49 0 51 27 13 242 l-34 196 149 149 c81 81 148 155 148 163 0 41
-22 50 -195 75 -93 14 -185 27 -203 30 -31 6 -37 15 -122 185 -98 195 -124
225 -164 185z"/>
<path d="M1768 2193 c-9 -10 -55 -96 -102 -190 -47 -95 -89 -173 -94 -173 -47
-1 -397 -62 -408 -71 -32 -26 -14 -54 133 -201 l148 -148 -35 -204 c-37 -221
-36 -236 16 -236 13 0 101 41 195 90 93 50 175 90 181 90 5 0 87 -41 182 -90
106 -56 180 -90 195 -88 47 6 48 23 11 238 l-34 201 147 147 c154 154 168 178
125 205 -13 8 -95 24 -183 36 -88 12 -175 24 -194 28 -32 5 -36 12 -117 182
-47 97 -92 182 -101 189 -23 17 -47 15 -65 -5z"/>
</g>
</svg>
